<svg xmlns="http://www.w3.org/2000/svg" xmlns:xlink="http://www.w3.org/1999/xlink" contentStyleType="text/css" data-diagram-type="DESCRIPTION" height="560px" preserveAspectRatio="none" style="width:728px;height:560px;background:#FFFFFF;" version="1.1" viewBox="0 0 728 560" width="728px" zoomAndPan="magnify"><title>Architecture</title><defs/><g><g class="title" data-source-line="1"><text fill="#000000" font-family="sans-serif" font-size="14" font-weight="bold" lengthAdjust="spacing" textLength="98.3486" x="307.8257" y="22.9951">Architecture</text></g><!--cluster REST API Layer--><g class="cluster" data-entity="REST API Layer" data-source-line="6" data-uid="ent0003" id="cluster_REST API Layer"><path d="M8.5,107.5869 L129.4229,107.5869 A3.75,3.75 0 0 1 131.9229,110.0869 L138.9229,129.8838 L718.5,129.8838 A2.5,2.5 0 0 1 721,132.3838 L721,202.3869 A2.5,2.5 0 0 1 718.5,204.8869 L8.5,204.8869 A2.5,2.5 0 0 1 6,202.3869 L6,110.0869 A2.5,2.5 0 0 1 8.5,107.5869" fill="none" style="stroke:#000000;stroke-width:1.5;"/><line style="stroke:#000000;stroke-width:1.5;" x1="6" x2="138.9229" y1="129.8838" y2="129.8838"/><text fill="#000000" font-family="sans-serif" font-size="14" font-weight="bold" lengthAdjust="spacing" textLength="119.9229" x="10" y="122.582">REST API Layer</text></g><!--cluster Service Layer--><g class="cluster" data-entity="Service Layer" data-source-line="12" data-uid="ent0007" id="cluster_Service Layer"><path d="M198.5,228.8869 L306.4688,228.8869 A3.75,3.75 0 0 1 308.9688,231.3869 L315.9688,251.1838 L395.5,251.1838 A2.5,2.5 0 0 1 398,253.6838 L398,429.9769 A2.5,2.5 0 0 1 395.5,432.4769 L198.5,432.4769 A2.5,2.5 0 0 1 196,429.9769 L196,231.3869 A2.5,2.5 0 0 1 198.5,228.8869" fill="none" style="stroke:#000000;stroke-width:1.5;"/><line style="stroke:#000000;stroke-width:1.5;" x1="196" x2="315.9688" y1="251.1838" y2="251.1838"/><text fill="#000000" font-family="sans-serif" font-size="14" font-weight="bold" lengthAdjust="spacing" textLength="106.9688" x="200" y="243.882">Service Layer</text></g><!--cluster Data Access Layer--><g class="cluster" data-entity="Data Access Layer" data-source-line="17" data-uid="ent0010" id="cluster_Data Access Layer"><path d="M198.5,456.4769 L343.9434,456.4769 A3.75,3.75 0 0 1 346.4434,458.9769 L353.4434,478.7738 L395.5,478.7738 A2.5,2.5 0 0 1 398,481.2738 L398,551.2769 A2.5,2.5 0 0 1 395.5,553.7769 L198.5,553.7769 A2.5,2.5 0 0 1 196,551.2769 L196,458.9769 A2.5,2.5 0 0 1 198.5,456.4769" fill="none" style="stroke:#000000;stroke-width:1.5;"/><line style="stroke:#000000;stroke-width:1.5;" x1="196" x2="353.4434" y1="478.7738" y2="478.7738"/><text fill="#000000" font-family="sans-serif" font-size="14" font-weight="bold" lengthAdjust="spacing" textLength="144.4434" x="200" y="471.472">Data Access Layer</text></g><!--entity Client Applications--><g class="entity" data-entity="Client Applications" data-source-line="3" data-uid="ent0002" id="entity_Client Applications"><path d="M204.23,43.2969 L365.7613,43.2969 A3.75,3.75 0 0 1 368.2613,45.7969 L375.2613,65.5938 L389.7613,65.5938 A2.5,2.5 0 0 1 392.2613,68.0938 L392.2613,80.0938 A2.5,2.5 0 0 1 389.7613,82.5938 L204.23,82.5938 A2.5,2.5 0 0 1 201.73,80.0938 L201.73,45.7969 A2.5,2.5 0 0 1 204.23,43.2969" fill="#F1F1F1" style="stroke:#181818;stroke-width:0.5;"/><line style="stroke:#181818;stroke-width:0.5;" x1="201.73" x2="375.2613" y1="65.5938" y2="65.5938"/><text fill="#000000" font-family="sans-serif" font-size="14" font-weight="bold" lengthAdjust="spacing" textLength="148.5313" x="211.73" y="59.292">Client Applications</text></g><!--entity Store Controller--><g class="entity" data-entity="Store Controller" data-source-line="7" data-uid="ent0004" id="entity_Store Controller"><rect fill="#F1F1F1" height="46.2969" rx="2.5" ry="2.5" style="stroke:#181818;stroke-width:0.5;" width="150.9336" x="21.53" y="142.5869"/><rect fill="#F1F1F1" height="10" style="stroke:#181818;stroke-width:0.5;" width="15" x="152.4636" y="147.5869"/><rect fill="#F1F1F1" height="2" style="stroke:#181818;stroke-width:0.5;" width="4" x="150.4636" y="149.5869"/><rect fill="#F1F1F1" height="2" style="stroke:#181818;stroke-width:0.5;" width="4" x="150.4636" y="153.5869"/><text fill="#000000" font-family="sans-serif" font-size="14" lengthAdjust="spacing" textLength="110.9336" x="36.53" y="175.582">Store Controller</text></g><!--entity Resource Controller--><g class="entity" data-entity="Resource Controller" data-source-line="8" data-uid="ent0005" id="entity_Resource Controller"><rect fill="#F1F1F1" height="46.2969" rx="2.5" ry="2.5" style="stroke:#181818;stroke-width:0.5;" width="178.7627" x="207.62" y="142.5869"/><rect fill="#F1F1F1" height="10" style="stroke:#181818;stroke-width:0.5;" width="15" x="366.3827" y="147.5869"/><rect fill="#F1F1F1" height="2" style="stroke:#181818;stroke-width:0.5;" width="4" x="364.3827" y="149.5869"/><rect fill="#F1F1F1" height="2" style="stroke:#181818;stroke-width:0.5;" width="4" x="364.3827" y="153.5869"/><text fill="#000000" font-family="sans-serif" font-size="14" lengthAdjust="spacing" textLength="138.7627" x="222.62" y="175.582">Resource Controller</text></g><!--entity Dataset/Pipeline/Plugin Controllers--><g class="entity" data-entity="Dataset.Pipeline.Plugin Controllers" data-source-line="9" data-uid="ent0006" id="entity_Dataset.Pipeline.Plugin Controllers"><rect fill="#F1F1F1" height="46.2969" rx="2.5" ry="2.5" style="stroke:#181818;stroke-width:0.5;" width="283.127" x="421.44" y="142.5869"/><rect fill="#F1F1F1" height="10" style="stroke:#181818;stroke-width:0.5;" width="15" x="684.567" y="147.5869"/><rect fill="#F1F1F1" height="2" style="stroke:#181818;stroke-width:0.5;" width="4" x="682.567" y="149.5869"/><rect fill="#F1F1F1" height="2" style="stroke:#181818;stroke-width:0.5;" width="4" x="682.567" y="153.5869"/><text fill="#000000" font-family="sans-serif" font-size="14" lengthAdjust="spacing" textLength="243.127" x="436.44" y="175.582">Dataset/Pipeline/Plugin Controllers</text></g><!--entity RdfStorageService--><g class="entity" data-entity="RdfStorageService" data-source-line="13" data-uid="ent0008" id="entity_RdfStorageService"><rect fill="#F1F1F1" height="46.2969" rx="2.5" ry="2.5" style="stroke:#181818;stroke-width:0.5;" width="170.0605" x="211.97" y="263.8869"/><rect fill="#F1F1F1" height="10" style="stroke:#181818;stroke-width:0.5;" width="15" x="362.0305" y="268.8869"/><rect fill="#F1F1F1" height="2" style="stroke:#181818;stroke-width:0.5;" width="4" x="360.0305" y="270.8869"/><rect fill="#F1F1F1" height="2" style="stroke:#181818;stroke-width:0.5;" width="4" x="360.0305" y="274.8869"/><text fill="#000000" font-family="sans-serif" font-size="14" lengthAdjust="spacing" textLength="130.0605" x="226.97" y="296.882">RdfStorageService</text></g><!--entity UriService--><g class="entity" data-entity="UriService" data-source-line="14" data-uid="ent0009" id="entity_UriService"><rect fill="#F1F1F1" height="46.2969" rx="2.5" ry="2.5" style="stroke:#181818;stroke-width:0.5;" width="111.6338" x="241.18" y="370.1869"/><rect fill="#F1F1F1" height="10" style="stroke:#181818;stroke-width:0.5;" width="15" x="332.8138" y="375.1869"/><rect fill="#F1F1F1" height="2" style="stroke:#181818;stroke-width:0.5;" width="4" x="330.8138" y="377.1869"/><rect fill="#F1F1F1" height="2" style="stroke:#181818;stroke-width:0.5;" width="4" x="330.8138" y="381.1869"/><text fill="#000000" font-family="sans-serif" font-size="14" lengthAdjust="spacing" textLength="71.6338" x="256.18" y="403.182">UriService</text></g><!--entity Apache Jena TDB2--><g class="entity" data-entity="Apache Jena TDB2" data-source-line="18" data-uid="ent0011" id="entity_Apache Jena TDB2"><rect fill="#F1F1F1" height="46.2969" rx="2.5" ry="2.5" style="stroke:#181818;stroke-width:0.5;" width="169.165" x="212.42" y="491.4769"/><rect fill="#F1F1F1" height="10" style="stroke:#181818;stroke-width:0.5;" width="15" x="361.585" y="496.4769"/><rect fill="#F1F1F1" height="2" style="stroke:#181818;stroke-width:0.5;" width="4" x="359.585" y="498.4769"/><rect fill="#F1F1F1" height="2" style="stroke:#181818;stroke-width:0.5;" width="4" x="359.585" y="502.4769"/><text fill="#000000" font-family="sans-serif" font-size="14" lengthAdjust="spacing" textLength="129.165" x="227.42" y="524.472">Apache Jena TDB2</text></g><!--link Client Applications to Store Controller--><g class="link" data-entity-1="Client Applications" data-entity-2="Store Controller" data-source-line="22" data-uid="lnk12" id="link_Client Applications_Store Controller"><path d="M229.86,82.9869 C216.37,87.7369 202.5,93.2969 190,99.5869 C166.58,111.3769 147.1426,124.8345 129.3126,138.5745" fill="none" id="Client Applications-to-Store Controller" style="stroke:#181818;stroke-width:1;"/><polygon fill="#181818" points="124.56,142.2369,134.1304,139.9117,128.5205,139.1849,129.2473,133.5749,124.56,142.2369" style="stroke:#181818;stroke-width:1;"/></g><!--link Client Applications to Resource Controller--><g class="link" data-entity-1="Client Applications" data-entity-2="Resource Controller" data-source-line="23" data-uid="lnk13" id="link_Client Applications_Resource Controller"><path d="M297,82.8969 C297,99.7769 297,118.4969 297,136.3469" fill="none" id="Client Applications-to-Resource Controller" style="stroke:#181818;stroke-width:1;"/><polygon fill="#181818" points="297,142.3469,301,133.3469,297,137.3469,293,133.3469,297,142.3469" style="stroke:#181818;stroke-width:1;"/></g><!--link Client Applications to Dataset/Pipeline/Plugin Controllers--><g class="link" data-entity-1="Client Applications" data-entity-2="Dataset.Pipeline.Plugin Controllers" data-source-line="24" data-uid="lnk14" id="link_Client Applications_Dataset.Pipeline.Plugin Controllers"><path d="M356.68,83.0369 C372.16,88.2069 388.76,93.9369 404,99.5869 C439.8,112.8669 474.0203,126.8283 504.8203,139.7983" fill="none" id="Client Applications-to-Dataset/Pipeline/Plugin Controllers" style="stroke:#181818;stroke-width:1;"/><polygon fill="#181818" points="510.35,142.1269,503.6078,134.9475,505.7419,140.1864,500.503,142.3205,510.35,142.1269" style="stroke:#181818;stroke-width:1;"/></g><!--link Store Controller to RdfStorageService--><g class="link" data-entity-1="Store Controller" data-entity-2="RdfStorageService" data-source-line="26" data-uid="lnk15" id="link_Store Controller_RdfStorageService"><path d="M134.62,189.1769 C170.26,210.4369 218.3574,239.1226 254.0574,260.4226" fill="none" id="Store Controller-to-RdfStorageService" style="stroke:#181818;stroke-width:1;"/><polygon fill="#181818" points="259.21,263.4969,253.5306,255.4505,254.9162,260.935,249.4316,262.3206,259.21,263.4969" style="stroke:#181818;stroke-width:1;"/></g><!--link Resource Controller to RdfStorageService--><g class="link" data-entity-1="Resource Controller" data-entity-2="RdfStorageService" data-source-line="27" data-uid="lnk16" id="link_Resource Controller_RdfStorageService"><path d="M297,189.1769 C297,210.5069 297,236.3969 297,257.6969" fill="none" id="Resource Controller-to-RdfStorageService" style="stroke:#181818;stroke-width:1;"/><polygon fill="#181818" points="297,263.6969,301,254.6969,297,258.6969,293,254.6969,297,263.6969" style="stroke:#181818;stroke-width:1;"/></g><!--link Dataset/Pipeline/Plugin Controllers to RdfStorageService--><g class="link" data-entity-1="Dataset.Pipeline.Plugin Controllers" data-entity-2="RdfStorageService" data-source-line="28" data-uid="lnk17" id="link_Dataset.Pipeline.Plugin Controllers_RdfStorageService"><path d="M512.65,189.3169 C465.21,210.5969 399.9946,239.8415 352.6146,261.0915" fill="none" id="Dataset/Pipeline/Plugin Controllers-to-RdfStorageService" style="stroke:#181818;stroke-width:1;"/><polygon fill="#181818" points="347.14,263.5469,356.9888,263.5136,351.7022,261.5007,353.715,256.2141,347.14,263.5469" style="stroke:#181818;stroke-width:1;"/></g><!--link RdfStorageService to UriService--><g class="link" data-entity-1="RdfStorageService" data-entity-2="UriService" data-source-line="30" data-uid="lnk18" id="link_RdfStorageService_UriService"><path d="M297,310.6669 C297,328.1569 297,346.2669 297,363.7469" fill="none" id="RdfStorageService-to-UriService" style="stroke:#181818;stroke-width:1;"/><polygon fill="#181818" points="297,369.7469,301,360.7469,297,364.7469,293,360.7469,297,369.7469" style="stroke:#181818;stroke-width:1;"/></g><!--link UriService to Apache Jena TDB2--><g class="link" data-entity-1="UriService" data-entity-2="Apache Jena TDB2" data-source-line="31" data-uid="lnk19" id="link_UriService_Apache Jena TDB2"><path d="M297,416.7669 C297,438.0969 297,463.9969 297,485.2869" fill="none" id="UriService-to-Apache Jena TDB2" style="stroke:#181818;stroke-width:1;"/><polygon fill="#181818" points="297,491.2869,301,482.2869,297,486.2869,293,482.2869,297,491.2869" style="stroke:#181818;stroke-width:1;"/></g><!--SRC=[ZL71QW8n4BtdAmOlFOdG3oYaseEbXsNNdcGF8HrrQ4YMoQmWfV_kHaKY6yNZp7lptimR8N48cksE1AtqZ4frnlwQBS9axWYzWEuwHzO81HydyAV-CqhzqQn0LqluCWVaX0Ai6mcCC0zUE3Y7tAPcZJ7qR4VzXH4JKMOLTUZ8uwno_PPyHeljZMM3lAT19tUiVpR9TC0lw4dwc-bQvWh94hIr6EEDYXuOEuHFz0PMY_VNqzHBsiGFsQJprRgGIGlJwLlfwWVaOXeF-4-bfCOxNDp6yHGtkCz-nl_kj2eqp-JyGtbnHaV_E080]--></g></svg>